# xmcd
#
# Track frame offsets:
#	150
#	17994
#	32007
#	46766
#	65946
#	83927
#	100698
#	117925
#	133690
#	150445
#	168031
#	185515
#	199900
#	217530
#	234819
#	253269
#	269581
#	286014
#	302662
#	318892
#	335114
#
# Disc length: 4742 seconds
#
# Revision: 3
# Processed by: cddbd v1.5.2PL0 Copyright (c) Steve Scherf et al.
# Submitted via: dBpowerAMP V4.0
#
DISCID=20128415
DTITLE=Various Artist - ERG Nu Country Traxx Volume 175
DYEAR=2009
DGENRE=Country
TTITLE0=Taylor Swift - White Horse
TTITLE1=Road Hammers, The - Homegrown
TTITLE2=George Strait - River Of Love
TTITLE3=Tim McGraw - Nothin' To Die For
TTITLE4=Jessica Andrews - Everything
TTITLE5=Jason Aldean - She's Country
TTITLE6=Kellie - Best Days Of Your Life
TTITLE7=Adam Gregory - What It Takes
TTITLE8=Aaron Lines - When We Make Love
TTITLE9=One More Girl - I Can Love Anyone
TTITLE10=Tracy Lawrence - You Can't Hide Redneck
TTITLE11=Mark Wills - The Things We Forget
TTITLE12=Jamie O'Neal - Like A Woman
TTITLE13=Keith Urban - Sweet Thing
TTITLE14=Whitney Duncan - When I Said I Would
TTITLE15=Mark Chesnutt - Things To Do In Wichita
TTITLE16=Codie Prevost - Call Me When You Get There
TTITLE17=Tara Oram - 538 Stars
TTITLE18=Rodney Atkins - It's America
TTITLE19=Brooks and Dunn ft Reba McEntire - Cowgirls Don't Cry [Remix]
TTITLE20=Little Big Town - Good Lord Willing
EXTD=
EXTT0=
EXTT1=
EXTT2=
EXTT3=
EXTT4=
EXTT5=
EXTT6=
EXTT7=
EXTT8=
EXTT9=
EXTT10=
EXTT11=
EXTT12=
EXTT13=
EXTT14=
EXTT15=
EXTT16=
EXTT17=
EXTT18=
EXTT19=
EXTT20=
PLAYORDER=
